name rise34.3697peak60.0498fall86.3158.mot
datacolumns 19
datarows 33
range 9.07496900000000 9.12830300000000
endheader
time	ground_force1_vx	ground_force1_vy	ground_force1_vz	ground_force1_px	ground_force1_py	ground_force1_pz	ground_force2_vx	ground_force2_vy	ground_force2_vz	ground_force2_px	ground_force2_py	ground_force2_pz	ground_torque1_x	ground_torque1_y	ground_torque1_z	ground_torque2_x	ground_torque2_y	ground_torque2_z	
9.07496900000000	38.46820000000000	753.81366900000000	61.74207400000000	0.40560100000000	0.00000000000000	0.12403700000000	0.00000000000000	0.00000000000000	0.00000000000000	0.00000000000000	0.00000000000000	0.00000000000000	0.00000000000000	38.67467100000000	0.00000000000000	0.00000000000000	0.00000000000000	0.00000000000000	
9.07663100000000	37.85193500000000	756.90465800000004	62.01163600000000	0.40400300000000	0.00000000000000	0.12410500000000	0.00000000000000	0.00000000000000	0.00000000000000	0.00000000000000	0.00000000000000	0.00000000000000	0.00000000000000	38.85773400000000	0.00000000000000	0.00000000000000	0.00000000000000	0.00000000000000	
9.07829500000000	37.25080400000000	759.87701900000002	62.27024100000000	0.40242800000000	0.00000000000000	0.12417200000000	0.00000000000000	0.00000000000000	0.00000000000000	0.00000000000000	0.00000000000000	0.00000000000000	0.00000000000000	39.03064700000000	0.00000000000000	0.00000000000000	0.00000000000000	0.00000000000000	
9.07997000000000	36.66512200000000	762.72744299999999	62.51725900000000	0.40087600000000	0.00000000000000	0.12423600000000	0.00000000000000	0.00000000000000	0.00000000000000	0.00000000000000	0.00000000000000	0.00000000000000	0.00000000000000	39.19304900000000	0.00000000000000	0.00000000000000	0.00000000000000	0.00000000000000	
9.08163500000000	36.09510400000000	765.45276999999999	62.75203300000000	0.39935000000000	0.00000000000000	0.12429900000000	0.00000000000000	0.00000000000000	0.00000000000000	0.00000000000000	0.00000000000000	0.00000000000000	0.00000000000000	39.34456700000000	0.00000000000000	0.00000000000000	0.00000000000000	0.00000000000000	
9.08330100000000	35.54087700000000	768.05001100000004	62.97389100000000	0.39784900000000	0.00000000000000	0.12435900000000	0.00000000000000	0.00000000000000	0.00000000000000	0.00000000000000	0.00000000000000	0.00000000000000	0.00000000000000	39.48482300000000	0.00000000000000	0.00000000000000	0.00000000000000	0.00000000000000	
9.08496500000000	35.00247800000000	770.51636699999995	63.18214500000000	0.39637600000000	0.00000000000000	0.12441700000000	0.00000000000000	0.00000000000000	0.00000000000000	0.00000000000000	0.00000000000000	0.00000000000000	0.00000000000000	39.61344000000000	0.00000000000000	0.00000000000000	0.00000000000000	0.00000000000000	
9.08663400000000	34.47986000000000	772.84924599999999	63.37609900000000	0.39493000000000	0.00000000000000	0.12447300000000	0.00000000000000	0.00000000000000	0.00000000000000	0.00000000000000	0.00000000000000	0.00000000000000	0.00000000000000	39.73003900000000	0.00000000000000	0.00000000000000	0.00000000000000	0.00000000000000	
9.08830300000000	33.97289800000000	775.04627400000004	63.55505800000000	0.39351300000000	0.00000000000000	0.12452600000000	0.00000000000000	0.00000000000000	0.00000000000000	0.00000000000000	0.00000000000000	0.00000000000000	0.00000000000000	39.83425100000000	0.00000000000000	0.00000000000000	0.00000000000000	0.00000000000000	
9.08996700000000	33.48138700000000	777.10531800000001	63.71833000000000	0.39212400000000	0.00000000000000	0.12457600000000	0.00000000000000	0.00000000000000	0.00000000000000	0.00000000000000	0.00000000000000	0.00000000000000	0.00000000000000	39.92571200000000	0.00000000000000	0.00000000000000	0.00000000000000	0.00000000000000	
9.09162800000000	33.00505400000000	779.02449000000001	63.86523400000000	0.39076400000000	0.00000000000000	0.12462400000000	0.00000000000000	0.00000000000000	0.00000000000000	0.00000000000000	0.00000000000000	0.00000000000000	0.00000000000000	40.00407500000000	0.00000000000000	0.00000000000000	0.00000000000000	0.00000000000000	
9.09330000000000	32.54355800000000	780.80216800000005	63.99510700000000	0.38943300000000	0.00000000000000	0.12466800000000	0.00000000000000	0.00000000000000	0.00000000000000	0.00000000000000	0.00000000000000	0.00000000000000	0.00000000000000	40.06900700000000	0.00000000000000	0.00000000000000	0.00000000000000	0.00000000000000	
9.09496400000000	32.09649800000000	782.43700000000001	64.10730800000000	0.38813200000000	0.00000000000000	0.12470900000000	0.00000000000000	0.00000000000000	0.00000000000000	0.00000000000000	0.00000000000000	0.00000000000000	0.00000000000000	40.12019500000000	0.00000000000000	0.00000000000000	0.00000000000000	0.00000000000000	
9.09663400000000	31.66341700000000	783.92791799999998	64.20122400000000	0.38686000000000	0.00000000000000	0.12474700000000	0.00000000000000	0.00000000000000	0.00000000000000	0.00000000000000	0.00000000000000	0.00000000000000	0.00000000000000	40.15735100000000	0.00000000000000	0.00000000000000	0.00000000000000	0.00000000000000	
9.09829500000000	31.24380600000000	785.27414499999998	64.27627600000000	0.38561800000000	0.00000000000000	0.12478100000000	0.00000000000000	0.00000000000000	0.00000000000000	0.00000000000000	0.00000000000000	0.00000000000000	0.00000000000000	40.18021200000000	0.00000000000000	0.00000000000000	0.00000000000000	0.00000000000000	
9.09997100000000	30.83711200000000	786.47519999999997	64.33192699999999	0.38440500000000	0.00000000000000	0.12481200000000	0.00000000000000	0.00000000000000	0.00000000000000	0.00000000000000	0.00000000000000	0.00000000000000	0.00000000000000	40.18854500000000	0.00000000000000	0.00000000000000	0.00000000000000	0.00000000000000	
9.10165300000000	30.44274200000000	787.53090499999996	64.36768200000000	0.38322000000000	0.00000000000000	0.12483900000000	0.00000000000000	0.00000000000000	0.00000000000000	0.00000000000000	0.00000000000000	0.00000000000000	0.00000000000000	40.18214800000000	0.00000000000000	0.00000000000000	0.00000000000000	0.00000000000000	
9.10330300000000	30.06006900000000	788.44138799999996	64.38309800000000	0.38206400000000	0.00000000000000	0.12486300000000	0.00000000000000	0.00000000000000	0.00000000000000	0.00000000000000	0.00000000000000	0.00000000000000	0.00000000000000	40.16085400000000	0.00000000000000	0.00000000000000	0.00000000000000	0.00000000000000	
9.10496700000000	29.68843600000000	789.20708800000000	64.37778500000000	0.38093600000000	0.00000000000000	0.12488200000000	0.00000000000000	0.00000000000000	0.00000000000000	0.00000000000000	0.00000000000000	0.00000000000000	0.00000000000000	40.12453400000000	0.00000000000000	0.00000000000000	0.00000000000000	0.00000000000000	
9.10663400000000	29.32716300000000	789.82875200000001	64.35141100000000	0.37983600000000	0.00000000000000	0.12489800000000	0.00000000000000	0.00000000000000	0.00000000000000	0.00000000000000	0.00000000000000	0.00000000000000	0.00000000000000	40.07309600000000	0.00000000000000	0.00000000000000	0.00000000000000	0.00000000000000	
9.10829500000000	28.97555300000000	790.30743700000005	64.30370600000001	0.37876300000000	0.00000000000000	0.12491000000000	0.00000000000000	0.00000000000000	0.00000000000000	0.00000000000000	0.00000000000000	0.00000000000000	0.00000000000000	40.00649100000000	0.00000000000000	0.00000000000000	0.00000000000000	0.00000000000000	
9.10996800000000	28.63289500000000	790.64450799999997	64.23446800000001	0.37771500000000	0.00000000000000	0.12491800000000	0.00000000000000	0.00000000000000	0.00000000000000	0.00000000000000	0.00000000000000	0.00000000000000	0.00000000000000	39.92471000000000	0.00000000000000	0.00000000000000	0.00000000000000	0.00000000000000	
9.11162900000000	28.29847000000000	790.84163400000000	64.14356100000001	0.37669300000000	0.00000000000000	0.12492300000000	0.00000000000000	0.00000000000000	0.00000000000000	0.00000000000000	0.00000000000000	0.00000000000000	0.00000000000000	39.82778900000000	0.00000000000000	0.00000000000000	0.00000000000000	0.00000000000000	
9.11329900000000	27.97155800000000	790.90078400000004	64.03092100000001	0.37569600000000	0.00000000000000	0.12492300000000	0.00000000000000	0.00000000000000	0.00000000000000	0.00000000000000	0.00000000000000	0.00000000000000	0.00000000000000	39.71580900000000	0.00000000000000	0.00000000000000	0.00000000000000	0.00000000000000	
9.11496200000000	27.65143800000000	790.82422199999996	63.89655800000000	0.37472200000000	0.00000000000000	0.12491900000000	0.00000000000000	0.00000000000000	0.00000000000000	0.00000000000000	0.00000000000000	0.00000000000000	0.00000000000000	39.58889500000000	0.00000000000000	0.00000000000000	0.00000000000000	0.00000000000000	
9.11663600000000	27.33739900000000	790.61450000000002	63.74055500000000	0.37377100000000	0.00000000000000	0.12491200000000	0.00000000000000	0.00000000000000	0.00000000000000	0.00000000000000	0.00000000000000	0.00000000000000	0.00000000000000	39.44721900000000	0.00000000000000	0.00000000000000	0.00000000000000	0.00000000000000	
9.11830000000000	27.02873800000000	790.27444700000001	63.56307100000000	0.37284200000000	0.00000000000000	0.12490000000000	0.00000000000000	0.00000000000000	0.00000000000000	0.00000000000000	0.00000000000000	0.00000000000000	0.00000000000000	39.29099800000000	0.00000000000000	0.00000000000000	0.00000000000000	0.00000000000000	
9.11996500000000	26.72476700000000	789.80716299999995	63.36434200000000	0.37193400000000	0.00000000000000	0.12488500000000	0.00000000000000	0.00000000000000	0.00000000000000	0.00000000000000	0.00000000000000	0.00000000000000	0.00000000000000	39.12049600000000	0.00000000000000	0.00000000000000	0.00000000000000	0.00000000000000	
9.12163300000000	26.42481900000000	789.21600799999999	63.14468000000000	0.37104500000000	0.00000000000000	0.12486500000000	0.00000000000000	0.00000000000000	0.00000000000000	0.00000000000000	0.00000000000000	0.00000000000000	0.00000000000000	38.93602100000000	0.00000000000000	0.00000000000000	0.00000000000000	0.00000000000000	
9.12329600000000	26.12824700000000	788.50459000000001	62.90447300000000	0.37017500000000	0.00000000000000	0.12484200000000	0.00000000000000	0.00000000000000	0.00000000000000	0.00000000000000	0.00000000000000	0.00000000000000	0.00000000000000	38.73792700000000	0.00000000000000	0.00000000000000	0.00000000000000	0.00000000000000	
9.12496100000000	25.83443100000000	787.67675299999996	62.64418300000000	0.36932300000000	0.00000000000000	0.12481600000000	0.00000000000000	0.00000000000000	0.00000000000000	0.00000000000000	0.00000000000000	0.00000000000000	0.00000000000000	38.52661200000000	0.00000000000000	0.00000000000000	0.00000000000000	0.00000000000000	
9.12662800000000	25.54277900000000	786.73656300000005	62.36434400000000	0.36848600000000	0.00000000000000	0.12478500000000	0.00000000000000	0.00000000000000	0.00000000000000	0.00000000000000	0.00000000000000	0.00000000000000	0.00000000000000	38.30251500000000	0.00000000000000	0.00000000000000	0.00000000000000	0.00000000000000	
9.12830300000000	25.25273100000000	785.68829700000003	62.06556500000000	0.36766500000000	0.00000000000000	0.12475100000000	0.00000000000000	0.00000000000000	0.00000000000000	0.00000000000000	0.00000000000000	0.00000000000000	0.00000000000000	38.06611700000000	0.00000000000000	0.00000000000000	0.00000000000000	0.00000000000000	
